<?xml version="1.0" standalone="no"?>
<!DOCTYPE svg PUBLIC "-//W3C//DTD SVG 20010904//EN"
 "http://www.w3.org/TR/2001/REC-SVG-20010904/DTD/svg10.dtd">
<svg version="1.0" xmlns="http://www.w3.org/2000/svg"
 width="800pt" height="200pt" viewBox="0 0 1076.000000 282.000000"
 preserveAspectRatio="xMidYMid meet">

<g transform="translate(0.000000,282.000000) scale(0.100000,-0.100000)"
fill="#000000" stroke="none">
<path d="M220 1715 l0 -985 2680 0 2680 0 0 985 0 985 -2680 0 -2680 0 0 -985z
m992 684 c83 -17 177 -68 247 -134 l63 -60 -90 -83 c-50 -45 -93 -82 -97 -82
-4 0 -30 20 -58 45 -133 117 -317 92 -341 -45 -11 -58 16 -85 203 -203 221
-141 254 -178 271 -315 29 -225 -106 -415 -340 -477 -65 -18 -218 -19 -292 -4
-119 25 -262 116 -329 210 l-20 28 101 80 101 80 53 -53 c59 -58 114 -89 193
-107 109 -25 222 29 238 114 14 74 -15 105 -215 227 -183 112 -248 197 -257
340 -20 287 261 503 569 439z m1254 -13 c78 -24 170 -91 220 -158 206 -280
116 -810 -179 -1056 -64 -53 -168 -107 -244 -127 -71 -19 -221 -19 -288 -1
-175 46 -295 178 -341 372 -23 97 -14 328 16 434 29 105 100 245 163 320 88
107 221 194 345 225 72 18 237 13 308 -9z m2707 -6 c61 -23 158 -104 189 -158
l18 -29 -98 -76 -98 -75 -34 40 c-94 113 -275 100 -409 -31 -62 -60 -96 -116
-135 -216 -28 -75 -30 -88 -31 -220 0 -126 2 -145 24 -192 27 -62 82 -115 137
-134 58 -20 162 -18 211 5 l42 19 21 96 c12 53 25 111 30 129 l8 32 -110 0
-110 0 6 33 c4 17 14 71 23 120 l16 87 233 0 c188 0 234 -3 234 -13 0 -8 -27
-153 -60 -323 -45 -235 -64 -312 -77 -323 -35 -26 -179 -91 -238 -106 -78 -20
-249 -20 -328 1 -179 46 -300 173 -348 364 -22 89 -17 306 10 410 65 253 235
458 451 544 128 51 313 58 423 16z m-1619 -334 c59 -189 125 -411 145 -492
l38 -149 7 85 c17 207 30 293 88 588 l61 312 139 0 c128 0 139 -1 134 -17 -3
-10 -62 -304 -131 -653 -69 -349 -128 -643 -131 -652 -5 -16 -20 -18 -142 -18
l-138 0 -112 358 c-62 196 -124 412 -139 479 -25 116 -43 149 -43 80 0 -87
-36 -322 -91 -604 l-62 -313 -138 0 -139 0 5 23 c3 12 59 292 126 622 66 330
125 621 131 648 l10 47 137 0 138 0 107 -344z"/>
<path d="M2220 2151 c-119 -36 -228 -169 -282 -341 -18 -61 -23 -98 -23 -195
0 -135 11 -182 58 -251 41 -60 91 -87 163 -86 107 1 216 84 287 220 100 189
105 466 12 588 -47 61 -138 88 -215 65z"/>
<path d="M5810 2665 l0 -35 2375 0 2375 0 0 35 0 35 -2375 0 -2375 0 0 -35z"/>
<path d="M5820 2391 c0 -5 -3 -16 -6 -25 -5 -14 16 -16 199 -16 113 0 208 -3
210 -7 3 -5 -52 -295 -122 -645 l-128 -638 27 0 27 0 129 643 129 642 213 3
212 2 0 25 0 25 -445 0 c-264 0 -445 -4 -445 -9z"/>
<path d="M6770 2388 c0 -7 49 -184 108 -393 l108 -381 -53 -259 c-28 -143 -52
-268 -53 -277 0 -13 8 -18 25 -18 14 0 25 1 25 3 0 2 25 125 55 275 l54 272
276 390 c151 214 275 392 275 395 0 4 -12 5 -27 3 -27 -3 -97 -98 -437 -588
-54 -78 -102 -138 -106 -133 -7 7 -200 700 -200 717 0 3 -11 6 -25 6 -14 0
-25 -6 -25 -12z"/>
<path d="M7796 2383 c-3 -10 -62 -304 -131 -653 -69 -349 -128 -643 -131 -652
-4 -14 1 -18 23 -18 l29 0 59 299 59 299 216 5 c229 4 284 13 386 62 118 58
197 166 213 292 22 177 -41 299 -179 348 -63 22 -200 35 -382 35 -141 0 -157
-2 -162 -17z m505 -60 c128 -44 164 -99 164 -248 0 -89 -3 -106 -28 -157 -34
-69 -91 -122 -171 -158 -88 -40 -157 -51 -367 -57 l-187 -6 66 328 65 327 201
-5 c165 -3 211 -8 257 -24z"/>
<path d="M8865 2378 c-7 -31 -265 -1309 -265 -1314 0 -2 160 -4 355 -4 348 0
355 0 355 20 0 20 -7 20 -319 20 -176 0 -322 3 -325 8 -2 4 6 57 19 117 13 61
42 203 66 318 l42 207 267 0 c259 0 268 1 273 20 5 20 0 20 -264 20 -148 0
-269 1 -269 3 0 2 25 126 55 277 30 151 55 275 55 277 0 2 143 3 319 3 l319 0
4 25 5 25 -343 0 -344 0 -5 -22z"/>
<path d="M9726 1758 c-70 -354 -130 -655 -133 -670 -5 -25 -2 -28 21 -28 14 0
26 1 26 3 1 1 29 142 63 312 l63 310 148 0 147 0 128 -310 127 -310 32 -3 32
-3 -41 98 c-23 54 -81 194 -130 312 -94 226 -95 231 -38 231 32 0 119 30 179
60 71 36 153 126 180 195 51 134 34 272 -42 346 -76 73 -199 98 -488 99 l-145
0 -129 -642z m544 581 c138 -22 211 -79 230 -179 20 -104 -25 -247 -97 -311
-96 -84 -197 -109 -441 -109 l-184 0 6 28 c3 15 29 146 56 292 28 146 53 271
55 278 5 15 279 17 375 1z"/>
<path d="M5810 770 l0 -40 2375 0 2375 0 0 40 0 40 -2375 0 -2375 0 0 -40z"/>
<path d="M642 347 c5 -116 21 -168 53 -181 30 -11 100 -6 122 9 31 22 43 74
43 188 0 80 -3 97 -15 97 -12 0 -15 -18 -15 -99 0 -55 -5 -112 -10 -127 -22
-57 -75 -70 -115 -29 -24 23 -25 30 -25 140 0 111 -1 115 -21 115 -21 0 -22
-3 -17 -113z"/>
<path d="M940 310 c0 -125 2 -150 15 -150 12 0 15 23 17 127 l3 126 71 -124
c98 -171 104 -169 104 20 0 134 -2 151 -16 151 -15 0 -16 -13 -10 -132 8 -153
14 -154 -83 20 -46 82 -68 112 -82 112 -18 0 -19 -9 -19 -150z"/>
<path d="M1240 310 l0 -150 85 0 c69 0 85 3 85 15 0 12 -14 15 -70 15 l-70 0
0 135 c0 113 -2 135 -15 135 -13 0 -15 -23 -15 -150z"/>
<path d="M1488 437 c-38 -32 -48 -58 -48 -130 0 -50 5 -71 23 -98 63 -93 202
-55 222 61 11 65 -3 120 -40 157 -28 28 -40 33 -81 33 -36 0 -56 -6 -76 -23z
m112 -12 c39 -20 52 -46 52 -109 1 -119 -84 -174 -154 -99 -20 21 -23 35 -23
95 0 66 2 71 33 99 37 33 51 35 92 14z"/>
<path d="M1809 445 c-46 -25 -64 -63 -64 -135 0 -98 44 -153 125 -153 45 0 98
29 82 45 -7 7 -18 5 -33 -6 -66 -46 -142 15 -142 114 0 54 21 98 54 115 35 19
47 19 81 1 33 -17 50 -2 22 19 -24 18 -92 18 -125 0z"/>
<path d="M2020 310 c0 -127 2 -150 15 -150 11 0 15 12 15 46 0 37 6 53 29 80
34 38 31 39 85 -58 21 -38 44 -68 52 -68 21 0 18 7 -36 100 -55 93 -55 81 8
159 28 34 31 41 15 41 -10 -1 -44 -33 -78 -75 -33 -41 -63 -75 -67 -75 -5 0
-8 34 -8 75 0 60 -3 75 -15 75 -13 0 -15 -23 -15 -150z"/>
<path d="M2350 445 c0 -11 12 -15 45 -15 l45 0 0 -135 c0 -113 2 -135 15 -135
13 0 15 22 15 135 l0 135 50 0 c38 0 50 4 50 15 0 12 -19 15 -110 15 -91 0
-110 -3 -110 -15z"/>
<path d="M2620 310 c0 -143 1 -150 20 -150 18 0 20 7 20 70 l0 70 75 0 75 0 0
-70 c0 -56 3 -70 15 -70 13 0 15 23 15 150 0 124 -2 150 -15 150 -10 0 -15
-16 -17 -62 l-3 -63 -72 -3 -73 -3 0 66 c0 58 -2 65 -20 65 -19 0 -20 -7 -20
-150z"/>
<path d="M2920 310 l0 -150 90 0 c73 0 90 3 90 15 0 12 -14 15 -70 15 l-70 0
0 55 0 55 55 0 c42 0 55 3 55 15 0 12 -13 15 -55 15 l-55 0 0 50 0 50 65 0
c51 0 65 3 65 15 0 12 -16 15 -85 15 l-85 0 0 -150z"/>
<path d="M3260 311 c0 -128 2 -151 15 -151 12 0 15 14 15 65 l0 65 30 0 c26 0
34 -8 67 -65 24 -41 44 -65 55 -65 15 0 12 9 -17 59 -38 65 -42 81 -21 81 42
0 60 90 27 131 -16 20 -30 24 -95 27 l-76 4 0 -151z m143 108 c17 -10 23 -54
9 -76 -10 -16 -57 -33 -93 -33 l-29 0 0 66 0 66 48 -7 c26 -4 55 -11 65 -16z"/>
<path d="M3520 310 c0 -143 1 -150 20 -150 18 0 20 7 20 70 l0 70 75 0 75 0 0
-70 c0 -56 3 -70 15 -70 13 0 15 23 15 150 0 124 -2 150 -15 150 -10 0 -15
-16 -17 -62 l-3 -63 -72 -3 -73 -3 0 66 c0 58 -2 65 -20 65 -19 0 -20 -7 -20
-150z"/>
<path d="M3790 455 c0 -3 18 -41 40 -85 34 -69 40 -89 40 -145 0 -58 2 -65 20
-65 18 0 20 7 20 60 0 52 7 73 45 150 40 79 43 90 26 90 -14 0 -27 -20 -52
-75 -18 -41 -35 -75 -39 -75 -4 0 -21 34 -39 75 -19 41 -40 75 -47 75 -8 0
-14 -2 -14 -5z"/>
<path d="M4010 445 c0 -11 12 -15 45 -15 l45 0 0 -135 c0 -113 2 -135 15 -135
13 0 15 22 15 135 l0 135 45 0 c33 0 45 4 45 15 0 12 -18 15 -105 15 -87 0
-105 -3 -105 -15z"/>
<path d="M4280 310 c0 -127 2 -150 15 -150 12 0 15 14 15 70 l0 70 75 0 75 0
0 -70 c0 -63 2 -70 20 -70 19 0 20 7 20 150 0 143 -1 150 -20 150 -18 0 -20
-7 -20 -65 l0 -65 -75 0 -75 0 0 65 c0 51 -3 65 -15 65 -13 0 -15 -23 -15
-150z"/>
<path d="M4580 311 c0 -128 2 -151 15 -151 13 0 15 22 16 133 l0 132 43 -114
c23 -63 47 -116 52 -118 5 -2 27 45 49 104 21 60 41 111 44 115 3 4 4 -51 2
-122 -3 -114 -1 -130 13 -130 14 0 16 19 16 150 0 141 -1 150 -19 150 -15 0
-26 -19 -50 -86 -17 -47 -31 -87 -31 -89 0 -2 -5 -16 -11 -32 -10 -27 -13 -23
-53 87 -35 94 -47 116 -64 118 -22 3 -22 2 -22 -147z"/>
<path d="M5035 427 c-41 -41 -54 -105 -35 -173 14 -49 58 -93 93 -95 102 -5
149 42 149 151 0 100 -41 150 -125 150 -42 0 -54 -5 -82 -33z m141 -21 c29
-29 34 -41 34 -82 0 -67 -18 -110 -55 -130 -24 -13 -38 -15 -61 -7 -80 27 -91
197 -15 238 40 22 60 18 97 -19z"/>
<path d="M5320 310 c0 -127 2 -150 15 -150 12 0 15 14 15 70 l0 70 55 0 c30 0
55 5 55 10 0 6 -25 10 -55 10 l-55 0 0 55 0 55 65 0 c51 0 65 3 65 15 0 12
-16 15 -80 15 l-80 0 0 -150z"/>
<path d="M5635 370 c38 -77 45 -98 45 -150 0 -47 3 -60 15 -60 12 0 15 13 15
55 0 46 8 71 45 145 25 49 45 92 45 95 0 3 -7 5 -15 5 -8 0 -30 -33 -51 -77
l-37 -78 -36 77 c-25 54 -41 78 -54 78 -14 0 -10 -15 28 -90z"/>
<path d="M5888 444 c-39 -21 -58 -64 -58 -129 0 -101 42 -156 120 -157 99 -1
161 119 116 226 -29 69 -111 97 -178 60z m125 -33 c45 -45 41 -158 -8 -207
-59 -59 -145 4 -145 106 0 105 90 164 153 101z"/>
<path d="M6152 335 c3 -119 4 -126 29 -151 21 -20 36 -26 74 -26 38 0 53 6 74
26 25 25 26 32 29 151 3 109 2 125 -12 125 -14 0 -16 -16 -16 -105 0 -144 -25
-188 -96 -171 -40 10 -54 53 -54 171 0 89 -2 105 -16 105 -14 0 -15 -16 -12
-125z"/>
<path d="M6450 311 c0 -128 2 -151 15 -151 12 0 15 14 15 65 l0 65 30 0 c26 0
34 -8 67 -65 24 -41 44 -65 55 -65 15 0 12 9 -17 59 -38 65 -42 81 -21 81 23
0 46 41 46 81 0 55 -27 73 -116 77 l-74 4 0 -151z m143 108 c17 -10 23 -54 9
-76 -10 -16 -57 -33 -93 -33 l-29 0 0 66 0 66 48 -7 c26 -4 55 -11 65 -16z"/>
<path d="M6800 310 c0 -143 1 -150 20 -150 18 0 20 7 20 60 l0 60 33 0 c53 0
103 18 116 43 7 13 11 41 9 63 -3 33 -8 42 -38 56 -22 12 -58 18 -97 18 l-63
0 0 -150z m153 109 c22 -12 23 -66 0 -91 -11 -13 -30 -18 -65 -18 l-48 0 0 66
0 66 48 -7 c26 -4 55 -11 65 -16z"/>
<path d="M7070 310 l0 -150 85 0 c69 0 85 3 85 15 0 12 -14 15 -70 15 l-70 0
0 55 0 55 60 0 c47 0 60 3 60 15 0 12 -13 15 -60 15 l-60 0 0 50 0 50 70 0
c56 0 70 3 70 15 0 12 -16 15 -85 15 l-85 0 0 -150z"/>
<path d="M7310 311 c0 -125 2 -151 15 -151 10 0 15 16 17 63 3 61 4 62 33 65
27 2 33 -3 65 -60 20 -35 44 -64 54 -66 16 -3 13 6 -17 60 l-36 64 30 24 c42
35 48 79 16 116 -23 26 -32 29 -101 32 l-76 4 0 -151z m149 104 c18 -17 17
-63 -1 -82 -9 -8 -36 -15 -64 -16 l-49 -2 -3 49 c-5 73 0 79 56 71 26 -3 53
-13 61 -20z"/>
<path d="M7580 310 c0 -127 2 -150 15 -150 12 0 15 14 15 70 l0 70 60 0 c33 0
60 4 60 10 0 6 -27 10 -60 10 l-60 0 0 55 0 55 70 0 c56 0 70 3 70 15 0 12
-16 15 -85 15 l-85 0 0 -150z"/>
<path d="M7810 310 l0 -150 85 0 c69 0 85 3 85 15 0 12 -14 15 -70 15 l-70 0
0 55 0 55 55 0 c42 0 55 3 55 15 0 12 -13 15 -55 15 l-55 0 0 50 0 50 65 0
c51 0 65 3 65 15 0 12 -16 15 -80 15 l-80 0 0 -150z"/>
<path d="M8085 438 c-76 -59 -72 -203 6 -261 17 -12 42 -19 69 -19 47 1 98 28
82 44 -7 7 -19 4 -37 -8 -21 -14 -34 -15 -62 -8 -51 13 -76 50 -76 116 -1 100
54 155 126 124 41 -17 61 -4 31 19 -30 23 -107 19 -139 -7z"/>
<path d="M8270 445 c0 -11 12 -15 50 -15 l50 0 0 -135 c0 -113 2 -135 15 -135
13 0 15 22 15 135 l0 135 45 0 c33 0 45 4 45 15 0 12 -19 15 -110 15 -91 0
-110 -3 -110 -15z"/>
<path d="M8640 310 c0 -127 2 -150 15 -150 12 0 15 13 15 59 l0 58 56 6 c30 3
66 13 79 21 33 21 43 78 21 111 -22 34 -54 45 -127 45 l-59 0 0 -150z m143
109 c9 -5 18 -17 18 -27 4 -63 -15 -82 -83 -82 l-48 0 0 66 0 66 48 -7 c26 -4
55 -11 65 -16z"/>
<path d="M8900 310 l0 -150 85 0 c69 0 85 3 85 15 0 12 -14 15 -70 15 l-70 0
0 135 c0 113 -2 135 -15 135 -13 0 -15 -23 -15 -150z"/>
<path d="M9185 448 c-29 -78 -94 -283 -90 -286 12 -12 34 11 42 45 l9 38 62 3
62 3 12 -46 c8 -31 17 -45 29 -45 15 0 10 21 -33 150 -41 125 -53 150 -69 150
-11 0 -22 -6 -24 -12z m53 -100 l20 -68 -50 0 c-44 0 -49 2 -43 18 3 9 14 43
22 75 9 32 20 54 24 50 4 -4 16 -38 27 -75z"/>
<path d="M9375 370 c38 -77 45 -98 45 -150 0 -47 3 -60 15 -60 12 0 15 13 15
55 0 46 8 71 45 145 25 49 45 92 45 95 0 3 -7 5 -15 5 -10 0 -29 -30 -50 -77
-20 -42 -39 -72 -43 -67 -5 5 -22 39 -38 76 -20 46 -35 68 -47 68 -14 0 -10
-15 28 -90z"/>
<path d="M9590 310 l0 -150 80 0 c64 0 80 3 80 15 0 12 -14 15 -65 15 l-65 0
0 135 c0 113 -2 135 -15 135 -13 0 -15 -23 -15 -150z"/>
<path d="M9810 310 c0 -127 2 -150 15 -150 13 0 15 23 15 150 0 127 -2 150
-15 150 -13 0 -15 -23 -15 -150z"/>
<path d="M9950 440 c-29 -29 -30 -73 -2 -102 9 -10 42 -30 72 -45 43 -22 56
-34 58 -55 2 -18 -4 -31 -20 -42 -29 -20 -51 -20 -95 0 -24 12 -37 14 -45 6
-15 -15 47 -45 95 -45 51 0 91 30 95 71 5 48 -13 70 -84 102 -63 28 -65 31
-62 62 4 44 43 59 93 35 38 -18 60 -5 29 18 -29 22 -110 19 -134 -5z"/>
<path d="M10140 445 c0 -11 12 -15 45 -15 l45 0 0 -135 c0 -113 2 -135 15
-135 13 0 15 22 15 135 l0 135 45 0 c33 0 45 4 45 15 0 12 -18 15 -105 15 -87
0 -105 -3 -105 -15z"/>
</g>
</svg>
